/* XPM */
static const char *_add_xpm[] = {
/* columns rows colors chars-per-pixel */
"19 24 18 1 ",
"  c None",
". c #363635",
"X c #363735",
"o c #373735",
"O c gray21",
"+ c #373736",
"@ c #373835",
"# c #383935",
"$ c #393B35",
"% c #383936",
"& c #393A36",
"* c #6E8C2F",
"= c #7A9E2C",
"- c #80A72C",
"; c #81A82C",
": c #82AB2C",
"> c #92C329",
", c #93C429",
/* pixels */
"     ooooooooo     ",
"     #;;;;;;-o     ",
"     #,,,,,,>o     ",
"     #,,,,,,>o     ",
"     #,,,,,,>o     ",
"     o,,,,,,>o     ",
"     o,,,,,,>o     ",
"#@@@#o,,,,,,>o#@@@#",
"o*===-,,,,,,,-===*o",
"o;,,,,,,,,,,,,,,,;o",
"o;,,,,,,,,,,,,,,,;o",
"o;,,,,,,,,,,,,,,,;o",
"o;,,,,,,,,,,,,,,,;o",
"o;,,,,,,,,,,,,,,,;o",
"o;,,,,,,,,,,,,,,,;o",
"o*===-,,,,,,,-===*o",
"#@@@#o>,,,,,>o#@@@#",
"     o>,,,,,>o     ",
"     o>,,,,,>o     ",
"     o>,,,,,>o     ",
"     o>,,,,,>o     ",
"     o>,,,,,>o     ",
"     o-;;;;;-o     ",
"     ooooooooo     "
};
