/* XPM */
static const char *_close_xpm[] = {
/* columns rows colors chars-per-pixel */
"15 24 9 1 ",
"  c None",
". c gray25",
"X c gray26",
"o c #A596B1",
"O c #AE9EBB",
"+ c #BEACCD",
"@ c #C2AFD1",
"# c #CDB8DD",
"$ c #E2CAF5",
/* pixels */
"      $$$      ",
"       $       ",
"               ",
"               ",
"               ",
"               ",
"               ",
"               ",
"               ",
"...............",
".O###########O.",
".+$$$$$$$$$$$+.",
".+$$$$$$$$$$$+.",
".+$$$$$$$$$$$+.",
".+$$$$$$$$$$$+.",
".+$$$$$$$$$$$+.",
".+$$$$$$$$$$$+.",
".+$$$$$$$$$$$+.",
".+$$$$$$$$$$$+.",
".+$$$$$$$$$$$+.",
".+$$$$$$$$$$$+.",
".+$$$$$$$$$$$+.",
".o@@@@@@@@@@@o.",
"..............."
};
