/* XPM */
static const char *_delete_xpm[] = {
/* columns rows colors chars-per-pixel */
"20 24 15 1 ",
"  c None",
". c #363635",
"X c gray21",
"o c #383736",
"O c #91482E",
"+ c #9E4A2C",
"@ c #B14E2B",
"# c #C3522A",
"$ c #C45129",
"% c #C45229",
"& c #C55229",
"* c #C45329",
"= c #C55329",
"- c #C4512A",
"; c #C4522A",
/* pixels */
"       ******       ",
"         **         ",
"                    ",
"                    ",
"                    ",
"                    ",
"                    ",
"....................",
".O@@@@@@@@@@@@@@@@O.",
".+****************+.",
".+****************+.",
".+****************+.",
".+****************+.",
".+****************+.",
".+****************+.",
".O@@@@@@@@@@@@@@@@O.",
"o..................o",
"                    ",
"                    ",
"                    ",
"                    ",
"                    ",
"         **         ",
"      #******       "
};
