/* XPM */
static const char *_first_xpm[] = {
/* columns rows colors chars-per-pixel */
"10 24 15 1 ",
"  c None",
". c gray13",
"X c gray14",
"o c gray15",
"O c #282828",
"+ c #646464",
"@ c #767676",
"# c #777777",
"$ c gray53",
"% c #8B8B8B",
"& c gray55",
"* c #A0A0A0",
"= c gray63",
"- c #B4B4B4",
"; c #C0C0C0",
/* pixels */
"X....X    ",
".$==+O    ",
".=;;@O    ",
".=;;@O    ",
".=;;@O    ",
".=;;@O    ",
".=;;@O    ",
".=;;@O    ",
".=;;@O    ",
".=;;@XOOOX",
".=;;-&%%@.",
".=;;;;;;=.",
".=;;;;;;=.",
".=;;-&%%@.",
".=;;@XOOOX",
".=;;@O    ",
".=;;@O    ",
".=;;@O    ",
".=;;@O    ",
".=;;@O    ",
".=;;@O    ",
".=;;@O    ",
".$==+O    ",
"X....X    "
};
