/* XPM */
static const char *_last_xpm[] = {
/* columns rows colors chars-per-pixel */
"10 24 15 1 ",
"  c None",
". c gray13",
"X c gray14",
"o c gray15",
"O c #282828",
"+ c #646464",
"@ c gray46",
"# c #767676",
"$ c gray52",
"% c #8B8B8B",
"& c gray55",
"* c gray62",
"= c gray63",
"- c #B4B4B4",
"; c #C0C0C0",
/* pixels */
"    o....o",
"    O+==$.",
"    O@;;*.",
"    O@;;*.",
"    O@;;*.",
"    O@;;*.",
"    O@;;*.",
"    O@;;*.",
"    O@;;*.",
"oOOOo@;;*.",
".@%%&-;;*.",
".*;;;;;;*.",
".*;;;;;;*.",
".@%%&-;;*.",
"oOOOo@;;*.",
"    O@;;*.",
"    O@;;*.",
"    O@;;*.",
"    O@;;*.",
"    O@;;*.",
"    O@;;*.",
"    O@;;*.",
"    O+==$.",
"    o....o"
};
