/* XPM */
static const char *_next_xpm[] = {
/* columns rows colors chars-per-pixel */
"10 24 44 1 ",
"  c None",
". c gray21",
"X c #373737",
"o c gray22",
"O c #393939",
"+ c #3A3A3A",
"@ c gray23",
"# c #3C3C3C",
"$ c #414141",
"% c #464646",
"& c #494949",
"* c #4B4B4B",
"= c gray31",
"- c #515151",
"; c gray32",
": c gray33",
"> c gray36",
", c #676767",
"< c DimGray",
"1 c #6A6A6A",
"2 c gray46",
"3 c #767676",
"4 c #818181",
"5 c gray51",
"6 c #868686",
"7 c #898989",
"8 c #8B8B8B",
"9 c #8E8E8E",
"0 c #929292",
"q c #939393",
"w c #959595",
"e c gray60",
"r c gray61",
"t c gray62",
"y c #A2A2A2",
"u c #A5A5A5",
"i c gray66",
"p c #A9A9A9",
"a c gray69",
"s c #B2B2B2",
"d c gray72",
"f c #BCBCBC",
"g c gray75",
"h c #C0C0C0",
/* pixels */
"O....O    ",
"O-uu9O    ",
" .phh:O   ",
" O<hheO   ",
"  .ahh=O  ",
"  O2hhqO  ",
"   Odhg*O ",
"   O4hh9O ",
"    $ghg% ",
"    Oqhh7O",
"    #6hhy.",
"    #6hhy.",
"    #6hhy.",
"    #6hhy.",
"    Oqhh7O",
"    $ghg* ",
"   O4hhwO ",
"   Odhh-. ",
"  O2hhtO  ",
"  Oahh>O  ",
" O<hhp.   ",
" .phh,O   ",
"O-uut.    ",
"O....#    "
};
