/* XPM */
static const char *_previous_xpm[] = {
/* columns rows colors chars-per-pixel */
"10 24 45 1 ",
"  c None",
". c gray21",
"X c #373737",
"o c gray22",
"O c #393939",
"+ c #3A3A3A",
"@ c gray23",
"# c #3C3C3C",
"$ c gray24",
"% c #3E3E3E",
"& c #434343",
"* c #464646",
"= c #494949",
"- c gray29",
"; c gray30",
": c #515151",
"> c gray32",
", c gray33",
"< c #5D5D5D",
"1 c #676767",
"2 c #6D6D6D",
"3 c #777777",
"4 c gray47",
"5 c gray51",
"6 c #838383",
"7 c #888888",
"8 c gray55",
"9 c #8D8D8D",
"0 c #8E8E8E",
"q c #909090",
"w c #939393",
"e c gray59",
"r c #979797",
"t c #9A9A9A",
"y c gray61",
"u c #A0A0A0",
"i c #A5A5A5",
"p c gray66",
"a c gray68",
"s c #B4B4B4",
"d c gray73",
"f c gray74",
"g c gray",
"h c gray75",
"j c #C0C0C0",
/* pixels */
"    oXXXXo",
"    o0ii,o",
"   o>jjaX ",
"   otjj2o ",
"  X;gjso  ",
"  oejj3o  ",
" X-gjd$   ",
" oqjj5o   ",
" *gjg&    ",
"o0jjqo    ",
"Xijj7$    ",
"Xijj7$    ",
"Xijj7$    ",
"Xijj7$    ",
"o0jjqo    ",
" -gjg&    ",
" oejj5o   ",
" X>jjd$   ",
"  oujj4o  ",
"  o<jjso  ",
"   Xpjj2o ",
"   o1jjaX ",
"    Xyii,o",
"    $XXXXo"
};
