/* XPM */
static const char *_update_xpm[] = {
/* columns rows colors chars-per-pixel */
"20 24 82 1 ",
"  c None",
". c gray21",
"X c #363737",
"o c #373737",
"O c #363838",
"+ c #373838",
"@ c gray22",
"# c #383839",
"$ c #383939",
"% c #39393B",
"& c #383A3A",
"* c #393A3A",
"= c #393B3B",
"- c #3A3A3A",
"; c #3A3A3B",
": c #3A3B3B",
"> c gray23",
", c #3A3C3C",
"< c #3B3C3C",
"1 c #3B3C3D",
"2 c #3B3D3D",
"3 c #3C3E3E",
"4 c #3D3E3E",
"5 c #3D3F40",
"6 c #3E4040",
"7 c #424545",
"8 c #484C4D",
"9 c #4E5354",
"0 c #4E5455",
"q c #4E5556",
"w c #4F5556",
"e c #535A5B",
"r c #545B5C",
"t c #586061",
"y c #596163",
"u c #5B6465",
"i c #5E6869",
"p c #657172",
"a c #657173",
"s c #687476",
"d c #6B787A",
"f c #6C797B",
"g c #6E7D7F",
"h c #6F7E80",
"j c #718082",
"k c #738284",
"l c #738385",
"z c #748486",
"x c #77878A",
"c c #77888A",
"v c #77898B",
"b c #7E9294",
"n c #8AA0A2",
"m c #90A7AA",
"M c #91A8AB",
"N c #94ACAF",
"B c #96AFB2",
"V c #97B0B3",
"C c #99B3B6",
"Z c #9AB4B7",
"A c #9DB8BB",
"S c #A0BBBF",
"D c #A6C3C6",
"F c #A7C4C8",
"G c #AAC7CB",
"H c #AAC8CC",
"J c #ADCCD0",
"K c #AFCED2",
"L c #B0D0D4",
"P c #B2D2D7",
"I c #B5D6DA",
"U c #B8DADE",
"Y c #B9DBDF",
"T c #BDDFE4",
"R c #C1E5EA",
"E c #C5EAEE",
"W c #C5EAEF",
"Q c #C6EAEF",
"! c #C6EBF0",
"~ c #C8EDF2",
"^ c #C9EEF3",
"/ c #CAF0F5",
/* pixels */
"                 -3-",
"           o--o-whzo",
"           oyNL~//Do",
"           o-Z////Do",
"             oV///Do",
"             -v///Do",
"            <wQQsADo",
"            3I/k-Ojo",
"           oZ/B-  oo",
"          -v/L<    -",
"         <e!Qw-     ",
"        -5U/f-      ",
"        oS/m-       ",
"  o    -b/K-        ",
"  o-  <u~R8-        ",
"  rd-O7T/a<         ",
" -kQyoD/n-          ",
" <M/RF/G-           ",
" oK////9O           ",
" -!////C<-          ",
" w//////H6<         ",
"-g//UVxe-o-         ",
"<ia7o-<             ",
"-<o                 "
};
